<svg id="Layer_1" data-name="Layer 1" xmlns="http://www.w3.org/2000/svg" viewBox="0 0 250 250"><defs><style>.cls-1{fill:#ec413c;}.cls-2{font-size:28.23px;font-family:BreeSerif-Regular, Bree Serif;}.cls-2,.cls-3{fill:#fff;}.cls-4{fill:none;stroke:#fff;stroke-miterlimit:10;stroke-width:0.25px;}</style></defs><path class="cls-1" d="M77.69,119.93c-.15.78-.25,1.57-.45,2.34A21,21,0,0,1,70,133.16a18.77,18.77,0,0,1-8.57,4.18,10.34,10.34,0,0,1-7.06-.85,8.35,8.35,0,0,1-4.45-7.5,15.82,15.82,0,0,1,2.86-9.39,21.69,21.69,0,0,1,11.08-8.95,12.34,12.34,0,0,1,7.55-.48,8.37,8.37,0,0,1,6.17,7.2c0,.17.07.34.1.52Zm-18.8,11.9a20.46,20.46,0,0,0,2.38-.47,15.83,15.83,0,0,0,9.5-8.33,9,9,0,0,0,1.06-4.3,3.17,3.17,0,0,0-.74-2.21,1.45,1.45,0,0,0-1.86-.27,1.36,1.36,0,0,0-.58,1.73,2.7,2.7,0,0,1,.11,2,11.28,11.28,0,0,1-3.2,5.35,11.08,11.08,0,0,1-5.48,3.29,3.37,3.37,0,0,1-1.7,0,1.56,1.56,0,0,0-2.06.57,1.44,1.44,0,0,0,.66,2A13.13,13.13,0,0,0,58.89,131.83Z"/><path class="cls-1" d="M42.31,100.05c.81.13,1.64.23,2.44.39a14.14,14.14,0,0,1,6.45,3c3.87,3.33,3.88,8.33,0,11.66A14,14,0,0,1,44,118.31a17.55,17.55,0,0,1-10.59-1.4A11.06,11.06,0,0,1,29.59,114a7.08,7.08,0,0,1,.27-9.73,13.13,13.13,0,0,1,6.85-3.75c.95-.21,1.91-.33,2.87-.49Zm-1.47,12.68a12,12,0,0,0,4.68-.89,6,6,0,0,0,2.31-1.58,1.46,1.46,0,0,0-2.14-2,5,5,0,0,1-1.19.81,8.81,8.81,0,0,1-5.24.57,5.62,5.62,0,0,1-3.17-1.45,1.38,1.38,0,0,0-1.91,0,1.41,1.41,0,0,0-.17,1.93,5.28,5.28,0,0,0,1.24,1.07A10.69,10.69,0,0,0,40.84,112.73Z"/><path class="cls-1" d="M35.88,127.15a13.06,13.06,0,0,1,6.57,2.24,17.36,17.36,0,0,1,7.79,10.26,9.53,9.53,0,0,1,.11,4.86,7.06,7.06,0,0,1-6.88,5.43,13.12,13.12,0,0,1-7.7-2.34,17.45,17.45,0,0,1-7.54-9.83,9.85,9.85,0,0,1-.2-5.14C28.85,129.22,31.68,127.13,35.88,127.15Zm-2.24,7.67a2.58,2.58,0,0,0,0,.35,4.34,4.34,0,0,0,.13.72,11.54,11.54,0,0,0,7,7.72,7.54,7.54,0,0,0,2.51.46,1.38,1.38,0,0,0,1.4-1.49,1.48,1.48,0,0,0-1.5-1.41,4.67,4.67,0,0,1-1.28-.24A8.48,8.48,0,0,1,38.08,138a6,6,0,0,1-1.54-3.74,1.27,1.27,0,0,0-.72-1.09C34.75,132.59,33.63,133.39,33.64,134.82Z"/><text class="cls-2" transform="translate(79.82 132.14)">CentirStats</text><path class="cls-3" d="M120.08,147l1.93-5.48h.38l1.93,5.48h-.4l-1.09-3.23-.32-.94c-.1-.3-.2-.62-.29-1h0q-.15.51-.3,1c-.1.3-.2.62-.31.94L120.46,147Zm.88-1.88v-.32h2.46v.32Z"/><path class="cls-3" d="M125.65,147a.58.58,0,0,1-.28-.07.39.39,0,0,1-.16-.21.89.89,0,0,1,0-.35V141h.36v5.47a.24.24,0,0,0,.06.19.16.16,0,0,0,.13.06h.14l.06.29-.12,0Z"/><path class="cls-3" d="M127.62,147a.61.61,0,0,1-.28-.07.39.39,0,0,1-.16-.21,1.13,1.13,0,0,1-.05-.35V141h.36v5.47a.24.24,0,0,0,.06.19.17.17,0,0,0,.14.06h.13l.06.29a.35.35,0,0,1-.12,0Z"/><path class="cls-3" d="M132.75,147.06a2.11,2.11,0,0,1-1.19-.35,2.22,2.22,0,0,1-.81-1,3.54,3.54,0,0,1-.29-1.51,3.92,3.92,0,0,1,.16-1.18,2.54,2.54,0,0,1,.48-.89,2.14,2.14,0,0,1,.74-.57,2.3,2.3,0,0,1,.95-.19,1.8,1.8,0,0,1,.85.19,1.86,1.86,0,0,1,.59.46l-.23.24a1.49,1.49,0,0,0-.53-.4,1.46,1.46,0,0,0-.67-.14,1.76,1.76,0,0,0-1,.3,2,2,0,0,0-.68.86,3.5,3.5,0,0,0-.23,1.32,3.38,3.38,0,0,0,.23,1.32,1.91,1.91,0,0,0,.66.87,1.7,1.7,0,0,0,1,.31,1.73,1.73,0,0,0,.76-.16,2,2,0,0,0,.63-.49l.21.22a2.51,2.51,0,0,1-.7.57A1.94,1.94,0,0,1,132.75,147.06Z"/><path class="cls-3" d="M137,147.06a1.75,1.75,0,0,1-.93-.25,1.71,1.71,0,0,1-.66-.72,2.32,2.32,0,0,1-.25-1.12,2.36,2.36,0,0,1,.25-1.13,1.87,1.87,0,0,1,.64-.72,1.5,1.5,0,0,1,.84-.25,1.54,1.54,0,0,1,.82.21,1.43,1.43,0,0,1,.53.63,2.51,2.51,0,0,1,.19,1s0,.1,0,.15a.88.88,0,0,1,0,.16h-3v-.31h2.7a1.77,1.77,0,0,0-.32-1.15,1.07,1.07,0,0,0-.86-.38,1.32,1.32,0,0,0-.65.19,1.51,1.51,0,0,0-.52.59,2.25,2.25,0,0,0-.2,1,2.18,2.18,0,0,0,.2.95,1.4,1.4,0,0,0,.54.61,1.36,1.36,0,0,0,.77.22,1.87,1.87,0,0,0,.59-.09,1.8,1.8,0,0,0,.48-.24l.15.26a2.33,2.33,0,0,1-.52.27A2,2,0,0,1,137,147.06Z"/><path class="cls-3" d="M139.48,147v-4h.31l0,.61h0a4.21,4.21,0,0,1,.64-.51,1.33,1.33,0,0,1,.74-.2,1.05,1.05,0,0,1,.91.38,1.89,1.89,0,0,1,.29,1.15V147h-.36v-2.51a1.63,1.63,0,0,0-.22-.95.79.79,0,0,0-.7-.3,1.15,1.15,0,0,0-.65.19,4.1,4.1,0,0,0-.66.56v3Z"/><path class="cls-3" d="M145,147a.85.85,0,0,1-.79-.34,1.68,1.68,0,0,1-.2-.86v-2.55h-.63V143l.63,0,.05-1.33h.32V143h1.16v.31h-1.16v2.57a1.33,1.33,0,0,0,.13.62.56.56,0,0,0,.54.24l.24,0,.26-.09.12.25a2.33,2.33,0,0,1-.33.14A1.4,1.4,0,0,1,145,147Z"/><path class="cls-3" d="M146.68,142a.32.32,0,0,1-.23-.09.37.37,0,0,1-.09-.25.32.32,0,0,1,.09-.24.32.32,0,0,1,.23-.09.28.28,0,0,1,.22.09.32.32,0,0,1,.09.24.37.37,0,0,1-.09.25A.28.28,0,0,1,146.68,142Zm-.18,5v-4h.37v4Z"/><path class="cls-3" d="M148.41,147v-4h.31l0,.74h0a2,2,0,0,1,.48-.61,1,1,0,0,1,.65-.23h.21a.73.73,0,0,1,.19.07l-.1.32-.15,0h-.2a.89.89,0,0,0-.56.23,1.87,1.87,0,0,0-.53.79V147Z"/><path class="cls-3" d="M150.51,143.28V143l.6,0h1.28v.31Zm.59,3.68v-4.88a1.64,1.64,0,0,1,.12-.67.84.84,0,0,1,.34-.4,1,1,0,0,1,.53-.13,1.53,1.53,0,0,1,.3,0,1.16,1.16,0,0,1,.28.1l-.1.28a1.47,1.47,0,0,0-.48-.1.52.52,0,0,0-.47.24,1.26,1.26,0,0,0-.15.67V147Z"/><path class="cls-3" d="M154.38,147.06a1.09,1.09,0,0,1-.91-.38,1.82,1.82,0,0,1-.3-1.15V143h.37v2.51a1.61,1.61,0,0,0,.22.94.76.76,0,0,0,.69.31,1.16,1.16,0,0,0,.65-.2,3.27,3.27,0,0,0,.64-.62V143h.36v4h-.3l-.05-.67h0a2.91,2.91,0,0,1-.62.56A1.31,1.31,0,0,1,154.38,147.06Z"/><path class="cls-3" d="M158.94,148.88a2.49,2.49,0,0,1-.87-.13,1.29,1.29,0,0,1-.57-.39.91.91,0,0,1-.2-.58.93.93,0,0,1,.16-.52,1.66,1.66,0,0,1,.43-.45v0a.85.85,0,0,1-.25-.25.81.81,0,0,1-.1-.39.73.73,0,0,1,.15-.46,1.86,1.86,0,0,1,.29-.28v0a1.67,1.67,0,0,1-.35-.45,1.38,1.38,0,0,1-.15-.65,1.49,1.49,0,0,1,.18-.73,1.41,1.41,0,0,1,1.22-.67,1.48,1.48,0,0,1,.31,0,1,1,0,0,1,.22.07h1.35v.3h-.93v0a1.22,1.22,0,0,1,.31.39,1.16,1.16,0,0,1,.13.58,1.43,1.43,0,0,1-.18.72,1.41,1.41,0,0,1-.5.5,1.33,1.33,0,0,1-.71.19,1.48,1.48,0,0,1-.35-.05,1.43,1.43,0,0,1-.31-.12,1.31,1.31,0,0,0-.23.24.6.6,0,0,0-.1.34.54.54,0,0,0,.16.37.92.92,0,0,0,.61.15h.86a1.75,1.75,0,0,1,1,.22.8.8,0,0,1,.32.7,1.07,1.07,0,0,1-.23.64,1.72,1.72,0,0,1-.66.51A2.38,2.38,0,0,1,158.94,148.88Zm0-.3a1.87,1.87,0,0,0,.78-.14,1.36,1.36,0,0,0,.51-.38.81.81,0,0,0,.19-.48.49.49,0,0,0-.24-.47,1.32,1.32,0,0,0-.69-.14h-.86l-.19,0-.3,0a1.11,1.11,0,0,0-.4.41.8.8,0,0,0-.13.43.71.71,0,0,0,.35.61A1.71,1.71,0,0,0,159,148.58Zm-.1-3.18a.9.9,0,0,0,.51-.15,1,1,0,0,0,.38-.39,1.13,1.13,0,0,0,.15-.59,1.1,1.1,0,0,0-.31-.81,1,1,0,0,0-.73-.29,1,1,0,0,0-.73.29,1.1,1.1,0,0,0-.31.81,1.13,1.13,0,0,0,.15.59,1,1,0,0,0,.38.39A.9.9,0,0,0,158.88,145.4Z"/><path class="cls-3" d="M163.11,147.06a1.75,1.75,0,0,1-.93-.25,1.8,1.8,0,0,1-.67-.72,2.44,2.44,0,0,1-.25-1.12,2.48,2.48,0,0,1,.25-1.13,1.9,1.9,0,0,1,.65-.72,1.5,1.5,0,0,1,.84-.25,1.54,1.54,0,0,1,.82.21,1.43,1.43,0,0,1,.53.63,2.52,2.52,0,0,1,.18,1v.15a.88.88,0,0,1,0,.16h-3v-.31h2.69a1.77,1.77,0,0,0-.31-1.15,1.07,1.07,0,0,0-.86-.38,1.32,1.32,0,0,0-.65.19,1.51,1.51,0,0,0-.52.59,2.25,2.25,0,0,0-.2,1,2.18,2.18,0,0,0,.2.95,1.4,1.4,0,0,0,.54.61,1.35,1.35,0,0,0,.76.22,1.89,1.89,0,0,0,.6-.09,1.8,1.8,0,0,0,.48-.24l.15.26a2.2,2.2,0,0,1-.53.27A1.89,1.89,0,0,1,163.11,147.06Z"/><path class="cls-3" d="M167.32,147v-5.48h1.27a2.69,2.69,0,0,1,1.4.33,2,2,0,0,1,.82.95,3.56,3.56,0,0,1,.27,1.44,3.61,3.61,0,0,1-.27,1.45,2.11,2.11,0,0,1-.82,1,2.56,2.56,0,0,1-1.39.34Zm.39-.32h.84a2.11,2.11,0,0,0,1.21-.32,1.76,1.76,0,0,0,.7-.86,3.72,3.72,0,0,0,0-2.52,1.75,1.75,0,0,0-.7-.84,2.19,2.19,0,0,0-1.21-.3h-.84Z"/><path class="cls-3" d="M173.18,147.06a1.4,1.4,0,0,1-.58-.12.91.91,0,0,1-.42-.36A1.15,1.15,0,0,1,172,146a1.1,1.1,0,0,1,.63-1,5.51,5.51,0,0,1,1.95-.49,2.35,2.35,0,0,0-.07-.6.88.88,0,0,0-.27-.48.86.86,0,0,0-.61-.19,1.77,1.77,0,0,0-.73.15,5.9,5.9,0,0,0-.54.3l-.17-.26a3.51,3.51,0,0,1,.37-.23,2.36,2.36,0,0,1,.51-.2,2.07,2.07,0,0,1,.62-.08,1.27,1.27,0,0,1,.74.2,1.14,1.14,0,0,1,.4.56,2.41,2.41,0,0,1,.12.78V147h-.32l0-.51h0a3.38,3.38,0,0,1-.66.42A1.55,1.55,0,0,1,173.18,147.06Zm.07-.32a1.44,1.44,0,0,0,.66-.17,3.39,3.39,0,0,0,.69-.47v-1.35a6.24,6.24,0,0,0-1.3.25,1.59,1.59,0,0,0-.69.4.79.79,0,0,0-.21.55.68.68,0,0,0,.25.6A1,1,0,0,0,173.25,146.74Z"/><path class="cls-3" d="M177.39,147a.84.84,0,0,1-.79-.34,1.59,1.59,0,0,1-.21-.86v-2.55h-.62V143l.63,0,0-1.33h.32V143h1.15v.31h-1.15v2.57a1.22,1.22,0,0,0,.13.62.56.56,0,0,0,.54.24l.24,0,.26-.09.12.25a2,2,0,0,1-.34.14A1.26,1.26,0,0,1,177.39,147Z"/><path class="cls-3" d="M179.59,147.06a1.37,1.37,0,0,1-.58-.12.82.82,0,0,1-.42-.36,1.07,1.07,0,0,1-.16-.61,1.11,1.11,0,0,1,.62-1,5.57,5.57,0,0,1,2-.49,2.35,2.35,0,0,0-.07-.6,1,1,0,0,0-.27-.48.86.86,0,0,0-.61-.19,1.77,1.77,0,0,0-.73.15,5.9,5.9,0,0,0-.54.3l-.17-.26a3.51,3.51,0,0,1,.37-.23,2.36,2.36,0,0,1,.51-.2,2,2,0,0,1,.61-.08,1.3,1.3,0,0,1,.75.2,1.21,1.21,0,0,1,.4.56,2.41,2.41,0,0,1,.12.78V147h-.32l0-.51h0a3.7,3.7,0,0,1-.66.42A1.55,1.55,0,0,1,179.59,147.06Zm.06-.32a1.48,1.48,0,0,0,.67-.17,3.39,3.39,0,0,0,.69-.47v-1.35a6.49,6.49,0,0,0-1.31.25,1.59,1.59,0,0,0-.69.4.83.83,0,0,0-.2.55.68.68,0,0,0,.25.6A1,1,0,0,0,179.65,146.74Z"/><line class="cls-4" x1="205.02" y1="144.71" x2="185.34" y2="144.71"/><line class="cls-4" x1="116.71" y1="144.71" x2="97.02" y2="144.71"/></svg>